<svg width="260" height="139" viewBox="0 0 260 139" fill="none" xmlns="http://www.w3.org/2000/svg">
<rect x="0.999756" y="1.5249" width="258" height="136" rx="5" fill="#EFF2F6"/>
<rect x="170" y="18.5248" width="60" height="50" rx="3.50693" fill="#677272"/>
<path d="M167 31.5249H170V57.5249L167 53.7074V31.5249Z" fill="#3B4848"/>
<path d="M233 57.5248L230 57.5248L230 31.5248L233 35.3424L233 57.5248Z" fill="#3B4848"/>
<rect x="78.9998" y="31.5249" width="61" height="51" rx="4.54549" fill="#677272"/>
<path d="M82.4998 33.5249L83.1448 33.9077L83.7988 34.2749L83.7898 35.0249L83.7988 35.7749L83.1448 36.1421L82.4998 36.5249L81.8548 36.1421L81.2007 35.7749L81.2098 35.0249L81.2007 34.2749L81.8548 33.9077L82.4998 33.5249Z" fill="#8D9595"/>
<path d="M82.4998 77.55L83.1448 77.9329L83.7988 78.3L83.7898 79.05L83.7988 79.8L83.1448 80.1672L82.4998 80.55L81.8548 80.1672L81.2007 79.8L81.2098 79.05L81.2007 78.3L81.8548 77.9329L82.4998 77.55Z" fill="#8D9595"/>
<path d="M82.4998 55.0376L83.1448 55.4204L83.7988 55.7876L83.7898 56.5376L83.7988 57.2876L83.1448 57.6548L82.4998 58.0376L81.8548 57.6548L81.2007 57.2876L81.2098 56.5376L81.2007 55.7876L81.8548 55.4204L82.4998 55.0376Z" fill="#8D9595"/>
<path d="M136.5 33.5249L137.145 33.9077L137.799 34.2749L137.79 35.0249L137.799 35.7749L137.145 36.1421L136.5 36.5249L135.855 36.1421L135.201 35.7749L135.21 35.0249L135.201 34.2749L135.855 33.9077L136.5 33.5249Z" fill="#8D9595"/>
<path d="M136.5 77.55L137.145 77.9329L137.799 78.3L137.79 79.05L137.799 79.8L137.145 80.1672L136.5 80.55L135.855 80.1672L135.201 79.8L135.21 79.05L135.201 78.3L135.855 77.9329L136.5 77.55Z" fill="#8D9595"/>
<path d="M136.5 55.0376L137.145 55.4204L137.799 55.7876L137.79 56.5376L137.799 57.2876L137.145 57.6548L136.5 58.0376L135.855 57.6548L135.201 57.2876L135.21 56.5376L135.201 55.7876L135.855 55.4204L136.5 55.0376Z" fill="#8D9595"/>
<path d="M109.827 33.5249L110.472 33.9077L111.126 34.2749L111.117 35.0249L111.126 35.7749L110.472 36.1421L109.827 36.5249L109.182 36.1421L108.528 35.7749L108.537 35.0249L108.528 34.2749L109.182 33.9077L109.827 33.5249Z" fill="#8D9595"/>
<path d="M109.827 77.55L110.472 77.9329L111.126 78.3L111.117 79.05L111.126 79.8L110.472 80.1672L109.827 80.55L109.182 80.1672L108.528 79.8L108.537 79.05L108.528 78.3L109.182 77.9329L109.827 77.55Z" fill="#8D9595"/>
<mask id="path-14-inside-1_392_14965" fill="white">
<rect x="86.9997" y="39.525" width="21" height="16" rx="0.757583"/>
</mask>
<rect x="86.9997" y="39.525" width="21" height="16" rx="0.757583" fill="#414F4F" stroke="#8D9595" stroke-width="2" mask="url(#path-14-inside-1_392_14965)"/>
<mask id="path-15-inside-2_392_14965" fill="white">
<rect x="86.9997" y="58.525" width="21" height="16" rx="0.757583"/>
</mask>
<rect x="86.9997" y="58.525" width="21" height="16" rx="0.757583" fill="#414F4F" stroke="#8D9595" stroke-width="2" mask="url(#path-15-inside-2_392_14965)"/>
<mask id="path-16-inside-3_392_14965" fill="white">
<rect x="111" y="39.525" width="21" height="16" rx="0.757583"/>
</mask>
<rect x="111" y="39.525" width="21" height="16" rx="0.757583" fill="#414F4F" stroke="#8D9595" stroke-width="2" mask="url(#path-16-inside-3_392_14965)"/>
<mask id="path-17-inside-4_392_14965" fill="white">
<rect x="111" y="58.525" width="21" height="16" rx="0.757583"/>
</mask>
<rect x="111" y="58.525" width="21" height="16" rx="0.757583" fill="#414F4F" stroke="#8D9595" stroke-width="2" mask="url(#path-17-inside-4_392_14965)"/>
<rect x="9.99976" y="56.5248" width="16" height="28" rx="2.27275" fill="#677272"/>
<path d="M12.4998 57.8198L13.1448 58.2026L13.7988 58.5698L13.7898 59.3198L13.7988 60.0698L13.1448 60.4369L12.4998 60.8198L11.8548 60.4369L11.2007 60.0698L11.2098 59.3198L11.2007 58.5698L11.8548 58.2026L12.4998 57.8198Z" fill="#8D9595"/>
<path d="M12.4998 80.7774L13.1448 81.1602L13.7988 81.5274L13.7898 82.2774L13.7988 83.0274L13.1448 83.3946L12.4998 83.7774L11.8548 83.3946L11.2007 83.0274L11.2098 82.2774L11.2007 81.5274L11.8548 81.1602L12.4998 80.7774Z" fill="#8D9595"/>
<path d="M23.4998 57.7774L24.1448 58.1602L24.7988 58.5274L24.7898 59.2774L24.7988 60.0274L24.1448 60.3946L23.4998 60.7774L22.8548 60.3946L22.2007 60.0274L22.2098 59.2774L22.2007 58.5274L22.8548 58.1602L23.4998 57.7774Z" fill="#8D9595"/>
<path d="M23.4998 80.7774L24.1448 81.1602L24.7988 81.5274L24.7898 82.2774L24.7988 83.0274L24.1448 83.3946L23.4998 83.7774L22.8548 83.3946L22.2007 83.0274L22.2098 82.2774L22.2007 81.5274L22.8548 81.1602L23.4998 80.7774Z" fill="#8D9595"/>
<path d="M13.9998 66.5248H28.9998V76.5248H13.9998V66.5248Z" fill="#3B4848"/>
<mask id="path-24-inside-5_392_14965" fill="white">
<rect x="12.9998" y="61.5248" width="10" height="18" rx="0.757583"/>
</mask>
<rect x="12.9998" y="61.5248" width="10" height="18" rx="0.757583" fill="#414F4F" stroke="#8D9595" stroke-width="2" mask="url(#path-24-inside-5_392_14965)"/>
<rect x="54.9998" y="56.5249" width="16" height="28" rx="2.27275" fill="#677272"/>
<path d="M57.4998 57.8198L58.1448 58.2027L58.7988 58.5698L58.7898 59.3198L58.7988 60.0698L58.1448 60.437L57.4998 60.8198L56.8548 60.437L56.2007 60.0698L56.2098 59.3198L56.2007 58.5698L56.8548 58.2027L57.4998 57.8198Z" fill="#8D9595"/>
<path d="M57.4998 80.7775L58.1448 81.1603L58.7988 81.5275L58.7898 82.2775L58.7988 83.0275L58.1448 83.3946L57.4998 83.7775L56.8548 83.3946L56.2007 83.0275L56.2098 82.2775L56.2007 81.5275L56.8548 81.1603L57.4998 80.7775Z" fill="#8D9595"/>
<path d="M68.4998 57.7775L69.1448 58.1603L69.7988 58.5275L69.7898 59.2775L69.7988 60.0275L69.1448 60.3946L68.4998 60.7775L67.8548 60.3946L67.2007 60.0275L67.2098 59.2775L67.2007 58.5275L67.8548 58.1603L68.4998 57.7775Z" fill="#8D9595"/>
<path d="M68.4998 80.7775L69.1448 81.1603L69.7988 81.5275L69.7898 82.2775L69.7988 83.0275L69.1448 83.3946L68.4998 83.7775L67.8548 83.3946L67.2007 83.0275L67.2098 82.2775L67.2007 81.5275L67.8548 81.1603L68.4998 80.7775Z" fill="#8D9595"/>
<path d="M52.9998 66.5249H78.9998V76.5249H52.9998V66.5249Z" fill="#3B4848"/>
<mask id="path-31-inside-6_392_14965" fill="white">
<rect x="57.9998" y="61.5249" width="10" height="18" rx="0.757583"/>
</mask>
<rect x="57.9998" y="61.5249" width="10" height="18" rx="0.757583" fill="#414F4F" stroke="#8D9595" stroke-width="2" mask="url(#path-31-inside-6_392_14965)"/>
<rect x="150" y="29.5249" width="16" height="28" rx="2.27275" fill="#677272"/>
<path d="M152.5 30.8198L153.145 31.2027L153.799 31.5698L153.79 32.3198L153.799 33.0698L153.145 33.437L152.5 33.8198L151.855 33.437L151.201 33.0698L151.21 32.3198L151.201 31.5698L151.855 31.2027L152.5 30.8198Z" fill="#8D9595"/>
<path d="M152.5 53.7775L153.145 54.1603L153.799 54.5275L153.79 55.2775L153.799 56.0275L153.145 56.3946L152.5 56.7775L151.855 56.3946L151.201 56.0275L151.21 55.2775L151.201 54.5275L151.855 54.1603L152.5 53.7775Z" fill="#8D9595"/>
<path d="M163.5 30.7775L164.145 31.1603L164.799 31.5275L164.79 32.2775L164.799 33.0275L164.145 33.3946L163.5 33.7775L162.855 33.3946L162.201 33.0275L162.21 32.2775L162.201 31.5275L162.855 31.1603L163.5 30.7775Z" fill="#8D9595"/>
<path d="M163.5 53.7775L164.145 54.1603L164.799 54.5275L164.79 55.2775L164.799 56.0275L164.145 56.3946L163.5 56.7775L162.855 56.3946L162.201 56.0275L162.21 55.2775L162.201 54.5275L162.855 54.1603L163.5 53.7775Z" fill="#8D9595"/>
<path d="M140 39.5249H167V49.5249H140V39.5249Z" fill="#3B4848"/>
<mask id="path-38-inside-7_392_14965" fill="white">
<rect x="153" y="34.5249" width="10" height="18" rx="0.757583"/>
</mask>
<rect x="153" y="34.5249" width="10" height="18" rx="0.757583" fill="#414F4F" stroke="#8D9595" stroke-width="2" mask="url(#path-38-inside-7_392_14965)"/>
<rect x="234" y="29.5249" width="16" height="28" rx="2.27275" fill="#677272"/>
<path d="M236.5 30.8198L237.145 31.2027L237.799 31.5698L237.79 32.3198L237.799 33.0698L237.145 33.437L236.5 33.8198L235.855 33.437L235.201 33.0698L235.21 32.3198L235.201 31.5698L235.855 31.2027L236.5 30.8198Z" fill="#8D9595"/>
<path d="M236.5 53.7775L237.145 54.1603L237.799 54.5275L237.79 55.2775L237.799 56.0275L237.145 56.3946L236.5 56.7775L235.855 56.3946L235.201 56.0275L235.21 55.2775L235.201 54.5275L235.855 54.1603L236.5 53.7775Z" fill="#8D9595"/>
<path d="M247.5 30.7775L248.145 31.1603L248.799 31.5275L248.79 32.2775L248.799 33.0275L248.145 33.3946L247.5 33.7775L246.855 33.3946L246.201 33.0275L246.21 32.2775L246.201 31.5275L246.855 31.1603L247.5 30.7775Z" fill="#8D9595"/>
<path d="M247.5 53.7775L248.145 54.1603L248.799 54.5275L248.79 55.2775L248.799 56.0275L248.145 56.3946L247.5 56.7775L246.855 56.3946L246.201 56.0275L246.21 55.2775L246.201 54.5275L246.855 54.1603L247.5 53.7775Z" fill="#8D9595"/>
<path d="M231 39.5249H247V49.5249H231V39.5249Z" fill="#3B4848"/>
<mask id="path-45-inside-8_392_14965" fill="white">
<rect x="237" y="34.5249" width="10" height="18" rx="0.757583"/>
</mask>
<rect x="237" y="34.5249" width="10" height="18" rx="0.757583" fill="#414F4F" stroke="#8D9595" stroke-width="2" mask="url(#path-45-inside-8_392_14965)"/>
<rect x="29.5257" y="42.0509" width="22.9479" height="54.9479" fill="#8D9595" stroke="#677272" stroke-width="1.05208"/>
<rect x="29.2738" y="43.9619" width="23.0458" height="1.40277" fill="#677272"/>
<rect x="29.2737" y="49.573" width="23.0458" height="1.40277" fill="#677272"/>
<rect x="29.2737" y="55.1841" width="23.0458" height="1.40277" fill="#677272"/>
<rect x="29.2737" y="60.7952" width="23.0458" height="1.40277" fill="#677272"/>
<rect x="29.2737" y="66.4064" width="23.0458" height="1.40277" fill="#677272"/>
<rect x="29.2738" y="72.0173" width="23.0458" height="1.40277" fill="#677272"/>
<rect x="29.2737" y="77.6285" width="23.0458" height="1.40277" fill="#677272"/>
<rect x="29.2737" y="83.2396" width="23.0458" height="1.40277" fill="#677272"/>
<rect x="29.2737" y="88.8508" width="23.0458" height="1.40277" fill="#677272"/>
<rect x="29.2737" y="94.4619" width="23.0458" height="1.40277" fill="#677272"/>
<path d="M11.9395 20.5644L28.9998 41.5248H52.9998L70.446 20.5644V10.5248H11.9395V20.5644Z" fill="#677272"/>
<path d="M69.9998 118.654L52.9998 97.5248L28.9472 97.5248L11.9998 118.654L11.9998 128.525L69.9998 128.525L69.9998 118.654Z" fill="#677272"/>
<rect x="0.999756" y="1.5249" width="258" height="136" rx="5" stroke="#CED7E7" stroke-width="2"/>
</svg>